inDegrees=no
num_controls=7
num_derivatives=13
num_iterations=114
num_multipliers=7
num_parameters=0
num_slacks=7
num_states=26
objective=0.545143
objective_accelerations=0.042116
objective_balance=0.003902
objective_effort=0.041108
objective_height=0.448568
objective_ligament=0.009449
solver_duration=1275.751391
status=Solve_Succeeded
success=true
DataType=double
version=3
OpenSimVersion=4.5
endheader
time	/jointset/ground_pelvis/pelvis_tilt/value	/jointset/ground_pelvis/pelvis_tx/value	/jointset/ground_pelvis/pelvis_ty/value	/jointset/hip_r/hip_flexion_r/value	/jointset/hip_r/hip_adduction_r/value	/jointset/hip_r/hip_rotation_r/value	/jointset/back/lumbar_extension/value	/jointset/patellofemoral_r/patellar_flexion_r/value	/jointset/knee_r/knee_flexion_r/value	/jointset/knee_r/knee_adduction_r/value	/jointset/knee_r/knee_rotation_r/value	/jointset/ankle_r/ankle_angle_r/value	/jointset/subtalar_r/subtalar_angle_r/value	/jointset/ground_pelvis/pelvis_tilt/speed	/jointset/ground_pelvis/pelvis_tx/speed	/jointset/ground_pelvis/pelvis_ty/speed	/jointset/hip_r/hip_flexion_r/speed	/jointset/hip_r/hip_adduction_r/speed	/jointset/hip_r/hip_rotation_r/speed	/jointset/back/lumbar_extension/speed	/jointset/patellofemoral_r/patellar_flexion_r/speed	/jointset/knee_r/knee_flexion_r/speed	/jointset/knee_r/knee_adduction_r/speed	/jointset/knee_r/knee_rotation_r/speed	/jointset/ankle_r/ankle_angle_r/speed	/jointset/subtalar_r/subtalar_angle_r/speed	/forceset/tau_hip_flexion_r	/forceset/tau_hip_adduction_r	/forceset/tau_hip_rotation_r	/forceset/tau_knee_flexion_r	/forceset/tau_ankle_angle_r	/forceset/tau_subtalar_angle_r	/forceset/tau_lumbar_extension	lambda_cid13_p0	lambda_cid14_p0	lambda_cid14_p1	lambda_cid14_p2	lambda_cid14_p3	lambda_cid14_p4	lambda_cid14_p5	/jointset/ground_pelvis/pelvis_tilt/accel	/jointset/ground_pelvis/pelvis_tx/accel	/jointset/ground_pelvis/pelvis_ty/accel	/jointset/hip_r/hip_flexion_r/accel	/jointset/hip_r/hip_adduction_r/accel	/jointset/hip_r/hip_rotation_r/accel	/jointset/back/lumbar_extension/accel	/jointset/patellofemoral_r/patellar_flexion_r/accel	/jointset/knee_r/knee_flexion_r/accel	/jointset/knee_r/knee_adduction_r/accel	/jointset/knee_r/knee_rotation_r/accel	/jointset/ankle_r/ankle_angle_r/accel	/jointset/subtalar_r/subtalar_angle_r/accel	gamma_cid13_p0	gamma_cid14_p0	gamma_cid14_p1	gamma_cid14_p2	gamma_cid14_p3	gamma_cid14_p4	gamma_cid14_p5
1.5	-0.2351800811799839	0.00228544531050988	0.8473030525109602	0.8860248406544706	-0.2253375374266852	-0.1422012132715928	-0.3062672409730481	0.6527802212335356	0.6527802212335335	0.03681873239056635	0.174458957703176	0.1691524428751512	0.03651968048494161	0.5758024344377296	0.2431463237424844	0.4069446382811936	-2.013304176086817	0.0111767966819754	-0.2911153462101226	0.6927205410627056	-1.742867415643389	-1.742867415643432	0.2773381898120287	0.0005236319072753621	-0.3858320793913586	-0.08482130482674943	-0.1485907861364828	-0.02129651513364127	0.007780387119886057	-0.2932531209563444	0.1111248287878949	-0.009695588139153168	0.1793349704025227	-33.942156458093	-5.996685383101214	-0.9340561609460312	-4.33326566915822	-2.983697928941395	-659.1508649133423	58.2410929138583	0.2915239994340691	0.5581434329101321	-0.4415007304792024	-1.227012047003202	0.009596699784153393	-0.5196280470742768	1.707709869260589	-1.132244536593187	-1.132244536593179	0.4456758791273578	0.002036365035998696	-0.3174529218511757	-0.03645370809928086	1.26520249497716e-07	1.833048544315493e-07	-3.94755564104507e-07	1.246140115425561e-06	-5.94239516344593e-08	2.369317550164456e-07	-4.260486078035658e-07
1.51	-0.2294080015421535	0.004744582782778358	0.8513495861232215	0.8658325000520264	-0.2252262094237368	-0.1451370957713916	-0.2992556611135975	0.6352971457341956	0.6352971457342022	0.03961669735628733	0.1744642670679965	0.1652785631007807	0.03566860020084966	0.5785333572774215	0.2486534078548243	0.4022775948816188	-2.024904330263902	0.0110875358523853	-0.2960343484994211	0.7095193701841973	-1.753512426361559	-1.753512426361589	0.2822482748006488	0.0005225270287486175	-0.3888829011146143	-0.08537958241889761	-0.1408367607369309	-0.02280059749823314	0.007157495549545589	-0.2903775608886017	0.1129780969698762	-0.01027943503771063	0.1726755690341816	-34.85271849076875	-5.204090947156082	-0.9518204133684207	-4.441256603187259	-3.21532992125986	-655.047146539253	58.31584085645528	0.2518763477125415	0.5428145430222415	-0.4919269461024846	-1.087548993180357	-0.01823214960650255	-0.4737970776399359	1.654560337461555	-0.9953679393227691	-0.9953679393210074	0.5126948539562873	-0.003289552567363798	-0.2897434103510259	-0.06315678309727196	1.330386077174245e-07	1.904581277649689e-07	-4.36258321588103e-07	1.293018989899868e-06	-5.956837700977003e-08	2.541104794113033e-07	-4.722564573104425e-07
1.52	-0.2236110126916192	0.007257955824695765	0.8553469251412061	0.8455319515297952	-0.2251157829641393	-0.1481213204456403	-0.2920783747821563	0.617714672407695	0.6177146724077056	0.04246356718093931	0.1744691442563798	0.1613760057866205	0.03481240874117136	0.5807842769761129	0.2539934376722704	0.3971057194258079	-2.03494576004576	0.01099648801175733	-0.3007837811000084	0.7258618354603925	-1.762746981075485	-1.762746981075504	0.2871191615983489	0.0004371966194073186	-0.3915675873494018	-0.08584353994403419	-0.1330827353373838	-0.02430467986282138	0.006534603979217059	-0.2875020008208586	0.1148313651518593	-0.01086328193626269	0.1660161676658362	-35.73182380845905	-4.419558955621029	-0.9676715744760728	-4.553351139024747	-3.446591875363799	-651.0746602271867	58.47065618722988	0.1955233712341324	0.5247325739312297	-0.5424671417264322	-0.9152671679578469	0.009239297576607212	-0.4857141093320693	1.616437100201479	-0.850153335744651	-0.850153335744654	0.4378362409433001	-0.01480874112693803	-0.2442258241576886	-0.01758969469697043	1.418667169609044e-07	1.944833353369457e-07	-5.270843138700243e-07	1.316252544143825e-06	-5.30355465151779e-08	2.725366653542225e-07	-5.33206251714885e-07
1.53	-0.2177939425434501	0.009823832477002204	0.8592900609492878	0.8251388776821302	-0.225006332336332	-0.1511526806513648	-0.2847402443488155	0.6000470195480697	0.6000470195480788	0.04535875235484773	0.1744731928226891	0.1574484525416155	0.03395199947412375	0.5825429917930891	0.2591470531937482	0.3914401500062163	-2.043387766201976	0.01089567817506766	-0.3054749647385742	0.7416607559414597	-1.770529111916817	-1.770529111916849	0.2918917736699743	0.0003697348535915218	-0.393875396233815	-0.08621762847923137	-0.1249871286184029	-0.02613618171801689	0.005929376850237407	-0.2850282590924652	0.1172476363082364	-0.01161689181631062	0.15905848576367	-36.5748973955177	-3.463759840452159	-1.032250621831458	-4.651979359749749	-3.752415096591945	-647.10647342588	58.60931103262789	0.1530512360217124	0.5054436790187549	-0.5907350972635259	-0.7664548676923837	-0.01932206825858246	-0.4585840460695738	1.546095232487207	-0.7041029563168371	-0.7041029563190701	0.4930180715986948	-0.002878650099148171	-0.213894440202925	-0.04417917051446611	1.531489366671413e-07	1.951849730373896e-07	-6.703162431251659e-07	1.314362945643033e-06	-3.940813165881404e-08	2.922882791919569e-07	-6.098193625729909e-07
1.54	-0.2119618841072813	0.01244019881207626	0.863174114412136	0.8046698262672627	-0.2248978059956864	-0.1542305054044644	-0.2772472295685761	0.5823091733804392	0.5823091733804334	0.04830087252574117	0.1744765340201735	0.1534998540038427	0.03308847717420754	0.5837819345737255	0.2640913742257929	0.3852892503790943	-2.050141273487755	0.01081163057970451	-0.3100766905751652	0.7568387048396189	-1.776785642677728	-1.776785642677775	0.2965061609946635	0.0002957228561664265	-0.3957766459030216	-0.08646614651776471	-0.1168915218994238	-0.02796768357320952	0.005324149721188879	-0.282554517364069	0.1196639074646152	-0.01237050169635351	0.1521008038615026	-37.37734193506262	-2.516370416803191	-1.094772578016456	-4.754967999214156	-4.056254264415676	-643.2752256387844	58.83327883002882	0.09156896396634824	0.4828736760444658	-0.6395331832325376	-0.5775673938705483	0.01259174584194234	-0.4678225489371231	1.492242783620026	-0.545033319660869	-0.5450333196608709	0.4061912915560208	-0.01611878744882492	-0.1629139811165453	0.007524404635784581	1.644690940071639e-07	1.960411591629328e-07	-8.109682212316704e-07	1.313558800050098e-06	-2.637352897066112e-08	3.126018049859084e-07	-6.839471261566382e-07
1.55	-0.2061200433682996	0.01510484655992665	0.8669942694585326	0.7841418421014467	-0.2247901345141224	-0.1573540622690689	-0.2696059211380991	0.5645165387986388	0.5645165387986387	0.05128840911939794	0.1744793358369572	0.14953422553902	0.03222297377870111	0.5844962579410311	0.2687908879128749	0.3786635401030307	-2.055147128963283	0.01072166605988002	-0.3146042730641934	0.7712818825713701	-1.781462723762806	-1.781462723762834	0.3009804610606829	0.0002560321995532699	-0.3972811766361567	-0.08661815732019602	-0.108563403845777	-0.03002005276851092	0.004732633685249574	-0.2802338212224377	0.1222008745526781	-0.01329189797361415	0.1449031876485717	-38.13454086332571	-1.542669680752739	-1.229502269719635	-4.841937760204779	-4.281053130186542	-639.4529315920148	58.98123339051634	0.04788995718879983	0.4563956678576895	-0.6857537278454845	-0.4158041298090799	-0.01986058381194752	-0.4404006505585563	1.399190465690483	-0.3872994442325188	-0.3872994442296925	0.4648656065050193	0.001071952682115046	-0.1340213958045056	-0.02411474944776062	1.758329620991569e-07	1.970754119521775e-07	-9.486476469277888e-07	1.314005284981432e-06	-1.402194899805552e-08	3.335627510772404e-07	-7.552113374458008e-07
1.56	-0.2002737542088182	0.01781507053521172	0.8707458346465579	0.7635730574797993	-0.2246833766843427	-0.1605219298688979	-0.2618244138907545	0.5466854826177261	0.5466854826177271	0.0543200519621849	0.1744815339786711	0.1455555920115877	0.03135644008981738	0.5846716186713494	0.2732066197127297	0.3715712787048556	-2.058301364655421	0.01062890022336763	-0.3189388376201356	0.7848784682126095	-1.784469962499937	-1.784469962499945	0.3053274108219124	0.0001749878409263135	-0.3983776584249951	-0.08667220519323614	-0.1002352857921386	-0.0320724219638194	0.004141117649353781	-0.2779131250808095	0.1247378416407383	-0.01421329425088435	0.1377055714356367	-38.84193548651525	-0.5777030114151478	-1.362009142579014	-4.933548491704793	-4.503646737256105	-635.7742274932606	59.21862186827782	-0.01622356343087748	0.4261172985988386	-0.7328434076548878	-0.2072434371925964	0.01203148250438667	-0.4292189623199406	1.322924365517859	-0.2110648500716363	-0.2110648500716362	0.3807212305979882	-0.02438952785161484	-0.08130419225743264	0.02711699051401305	1.87996971724407e-07	1.972900997097024e-07	-1.100555965634723e-06	1.307546801379684e-06	-1.965836155157267e-10	3.557430929851701e-07	-8.284958515829076e-07
1.57	-0.1944284273675114	0.02056792586554396	0.8744242006401314	0.7429821397476285	-0.2245776310851774	-0.163732596278208	-0.2539115667954578	0.5288328392727348	0.5288328392727305	0.05739442582650059	0.1744831479032038	0.1415679972775285	0.03048977515142197	0.5842980578344248	0.277305579008301	0.3640281711787278	-2.059543960712331	0.01051789809965587	-0.3231609270268905	0.7975127955128185	-1.785754221926566	-1.785754221926569	0.3095204622798866	0.0001448969113741579	-0.3990705994667379	-0.08664565468198468	-0.09162916527644466	-0.03440907025778155	0.003542424200019692	-0.2759384110090455	0.127650157953114	-0.01533214824389504	0.1302570243963636	-39.49506582648134	0.4886288630930184	-1.566983378914829	-5.008511022255319	-4.709103230466935	-632.2079303924324	59.39906085966876	-0.06225823182893846	0.3929600410376662	-0.776028130624274	-0.03200947256908453	-0.02298144612921081	-0.4133915958655917	1.206963612609822	-0.04147555132010419	-0.04147555131929309	0.4344316500912356	0.007503793976549586	-0.05265687813479875	-0.007371583490345958	2.011611582662285e-07	1.964803311775776e-07	-1.270250400605175e-06	1.292457107111582e-06	1.547101352944179e-08	3.794476796638471e-07	-9.043057442799448e-07
1.58	-0.1885897033121634	0.02336000574803256	0.8780249388173369	0.7223889476983704	-0.2244730585845178	-0.1669844211147861	-0.2458777210870887	0.5109764795210068	0.5109764795209877	0.06050989711473308	0.1744844254523385	0.1375755995694518	0.02962381658515494	0.5833510614772386	0.2810515301440023	0.3560457154312628	-2.058756228074401	0.01039428052313681	-0.3271705230741361	0.8090781908264976	-1.785213243847654	-1.785213243847652	0.3135468956056295	0.0001077127611641632	-0.399338253228567	-0.08653093076757745	-0.08302304476075362	-0.03674571855174429	0.002943730750681817	-0.273963696937283	0.1305624742654888	-0.01645100223690632	0.1228084773570907	-40.09072707925638	1.546471153829451	-1.76951236501162	-5.088355089567486	-4.91434222774136	-628.7841098988679	59.67134023259035	-0.1309106674829829	0.355515666624636	-0.8207130519223734	0.1988223017754398	0.009508391942952546	-0.3867202904180786	1.109137968212059	0.1539826510367315	0.1539826510367307	0.347397604151681	-0.0258081719832112	0.003753263725086417	0.04475167114514644	2.134309039097273e-07	1.972395417607243e-07	-1.426915253206209e-06	1.282608526110552e-06	2.75339781236209e-08	4.096168949393741e-07	-9.757383706213775e-07
1.59	-0.1827632524645011	0.02618768925910199	0.8815437640422694	0.7018137164140814	-0.2243698314451074	-0.1702755434688367	-0.2377339026221001	0.4931346041368702	0.4931346041368604	0.06366477567014141	0.1744855506296532	0.1335825644356966	0.02875938033677498	0.5818403231798284	0.2844167178103564	0.3476534000512311	-2.055933156327387	0.01024703941563762	-0.3310102883241705	0.8194842196497516	-1.782841554352653	-1.782841554352659	0.3174002887559688	0.0001131482774648879	-0.3991971168875368	-0.08634350329266585	-0.07436225618848631	-0.03927753560825505	0.00232870281030085	-0.2722112953538038	0.1335970774031182	-0.01774466166171776	0.1153176134575161	-40.6291561362782	2.612626505385399	-2.049168784750874	-5.152858162324053	-5.046066417008832	-625.6908332839635	59.87238723032531	-0.1759572631546788	0.3167599728257514	-0.8582858531096826	0.3776048045078811	-0.0274625023643053	-0.3757535513951279	0.9761429616160362	0.3267576776248015	0.3267576776235403	0.3998602496834309	0.01335593335381958	0.03007793130762089	0.007550779394617159	2.244867654769311e-07	2.001280811431681e-07	-1.565897101163033e-06	1.279872884543406e-06	3.470494139888672e-08	4.485595347391971e-07	-1.04123042119449e-06
